<svg xmlns="http://www.w3.org/2000/svg" viewBox="0 0 48 48" id="delete-file"><path d="M10 45.5h28c.83 0 1.5-.67 1.5-1.5V4c0-.83-.67-1.5-1.5-1.5H10c-.83 0-1.5.67-1.5 1.5v40c0 .83.67 1.5 1.5 1.5zm1.5-40h25v37h-25v-37z"></path><path d="M14 21.5h15c.83 0 1.5-.67 1.5-1.5s-.67-1.5-1.5-1.5H14c-.83 0-1.5.67-1.5 1.5s.67 1.5 1.5 1.5zm20 5H14c-.83 0-1.5.67-1.5 1.5s.67 1.5 1.5 1.5h20c.83 0 1.5-.67 1.5-1.5s-.67-1.5-1.5-1.5zm0 8H14c-.83 0-1.5.67-1.5 1.5s.67 1.5 1.5 1.5h20c.83 0 1.5-.67 1.5-1.5s-.67-1.5-1.5-1.5zm-7.04-19.46c.29.29.68.44 1.06.44s.77-.15 1.06-.44l1.41-1.41 1.41 1.41c.29.29.68.44 1.06.44s.77-.15 1.06-.44c.59-.59.59-1.54 0-2.12l-1.41-1.41 1.41-1.41c.59-.59.59-1.54 0-2.12a1.49 1.49 0 0 0-2.12 0l-1.4 1.4-1.41-1.41a1.49 1.49 0 0 0-2.12 0 1.49 1.49 0 0 0 0 2.12l1.41 1.41-1.41 1.41c-.59.59-.59 1.54-.01 2.13z"></path></svg>