<svg xmlns="http://www.w3.org/2000/svg" viewBox="0 0 48 48" id="edit-file"><path d="M5.6 39.6h11.8v2H5.6zM5.6 19.7h23.7v2H5.6zM17.4 6.4h11.8v2H17.4zM5.6 13h23.7v2H5.6z"></path><path d="M43.3 14.6c-.4-.4-.9-.6-1.5-.6s-1.1.2-1.5.6l-5.9 5.9V.5H.5v47h33.8V33.7l12.5-12.5c.4-.4.6-.9.6-1.5s-.2-1.1-.6-1.5l-3.5-3.6zM22 35.6l12-12 4.2-4.1 3.8 3.8-16.2 16.1-3.9.1.1-3.9zm10.3 9.9H2.5v-43h29.8v20l-3.8 3.8H5.6v2h20.9L21.9 33H5.6v2h14.5l-.2 6.6 6.8-.2 5.7-5.7v9.8zm13.2-25.8-2 2-3.8-3.7 2.1-2.1h.1l3.6 3.8z"></path></svg>